<?xml version="1.0" encoding="utf-8"?>
<!-- Generator: Adobe Illustrator 19.0.0, SVG Export Plug-In . SVG Version: 6.00 Build 0)  -->
<svg version="1.1" id="Layer_1" xmlns="http://www.w3.org/2000/svg" xmlns:xlink="http://www.w3.org/1999/xlink" x="0px" y="0px"
	 viewBox="0 0 960 615.4" style="enable-background:new 0 0 960 615.4;" xml:space="preserve">
<style type="text/css">
	.st0{fill:url(#XMLID_38_);}
	.st1{fill:url(#XMLID_39_);}
	.st2{fill:url(#XMLID_40_);}
	.st3{fill:url(#XMLID_41_);}
	.st4{fill:url(#XMLID_42_);}
	.st5{fill:url(#XMLID_43_);}
	.st6{fill:url(#XMLID_44_);}
	.st7{fill:url(#XMLID_45_);}
	.st8{fill:url(#XMLID_46_);}
	.st9{fill:url(#XMLID_47_);}
</style>
<linearGradient id="XMLID_38_" gradientUnits="userSpaceOnUse" x1="9.094947e-013" y1="280.8125" x2="960.163" y2="280.8125">
	<stop  offset="0" style="stop-color:#FFFFFF"/>
	<stop  offset="1" style="stop-color:#39B54A;stop-opacity:0.2"/>
</linearGradient>
<path id="XMLID_5_" class="st0" d="M0,1c0,0,49.1,12.1,65,42.8c14.4,27.7,122.3,299.5,300.6,398.5c30.5,17,63.8,21,97,29.7
	C596.9,507.3,969.1,503,960,560.6L960.2,1H0z"/>
<linearGradient id="XMLID_39_" gradientUnits="userSpaceOnUse" x1="25.2727" y1="496.6591" x2="74.1364" y2="496.6591">
	<stop  offset="0" style="stop-color:#FFFFFF"/>
	<stop  offset="1" style="stop-color:#39B54A;stop-opacity:0.2"/>
</linearGradient>
<circle id="XMLID_1_" class="st1" cx="49.7" cy="496.7" r="24.4"/>
<linearGradient id="XMLID_40_" gradientUnits="userSpaceOnUse" x1="25.2727" y1="539.8409" x2="40.0455" y2="539.8409">
	<stop  offset="0" style="stop-color:#FFFFFF"/>
	<stop  offset="1" style="stop-color:#39B54A;stop-opacity:0.2"/>
</linearGradient>
<circle id="XMLID_6_" class="st2" cx="32.7" cy="539.8" r="7.4"/>
<linearGradient id="XMLID_41_" gradientUnits="userSpaceOnUse" x1="598.7273" y1="489.7727" x2="623.7273" y2="489.7727">
	<stop  offset="0" style="stop-color:#FFFFFF"/>
	<stop  offset="1" style="stop-color:#39B54A;stop-opacity:0.2"/>
</linearGradient>
<circle id="XMLID_7_" class="st3" cx="611.2" cy="489.8" r="12.5"/>
<linearGradient id="XMLID_42_" gradientUnits="userSpaceOnUse" x1="592.0455" y1="509.4546" x2="605.6818" y2="509.4546">
	<stop  offset="0" style="stop-color:#FFFFFF"/>
	<stop  offset="1" style="stop-color:#39B54A;stop-opacity:0.2"/>
</linearGradient>
<circle id="XMLID_8_" class="st4" cx="598.9" cy="509.5" r="6.8"/>
<linearGradient id="XMLID_43_" gradientUnits="userSpaceOnUse" x1="437.7727" y1="77" x2="458.8023" y2="77">
	<stop  offset="0" style="stop-color:#FFFFFF"/>
	<stop  offset="1" style="stop-color:#39B54A;stop-opacity:0.2"/>
</linearGradient>
<ellipse id="XMLID_10_" class="st5" cx="448.3" cy="77" rx="10.5" ry="0"/>
<linearGradient id="XMLID_44_" gradientUnits="userSpaceOnUse" x1="485.0893" y1="27.7207" x2="502.8943" y2="27.7207">
	<stop  offset="0" style="stop-color:#FFFFFF"/>
	<stop  offset="1" style="stop-color:#39B54A;stop-opacity:0.2"/>
</linearGradient>
<circle id="XMLID_11_" class="st6" cx="494" cy="27.7" r="8.9"/>
<linearGradient id="XMLID_45_" gradientUnits="userSpaceOnUse" x1="-1.685961e-002" y1="560.9318" x2="177.5455" y2="560.9318">
	<stop  offset="0" style="stop-color:#FFFFFF"/>
	<stop  offset="1" style="stop-color:#39B54A;stop-opacity:0.2"/>
</linearGradient>
<path id="XMLID_4_" class="st7" d="M0,506.9c0,0-5.4,105.1,177.5,108.1H0V506.9z"/>
<linearGradient id="XMLID_46_" gradientUnits="userSpaceOnUse" x1="73.7273" y1="25.7727" x2="98.7273" y2="25.7727" gradientTransform="matrix(-1 0 0 1 131.7727 0)">
	<stop  offset="0" style="stop-color:#FFFFFF"/>
	<stop  offset="1" style="stop-color:#39B54A;stop-opacity:0.2"/>
</linearGradient>
<circle id="XMLID_36_" class="st8" cx="45.5" cy="25.8" r="12.5"/>
<linearGradient id="XMLID_47_" gradientUnits="userSpaceOnUse" x1="85.0455" y1="51.4545" x2="98.6818" y2="51.4545" gradientTransform="matrix(-1 0 0 1 131.7727 0)">
	<stop  offset="0" style="stop-color:#FFFFFF"/>
	<stop  offset="1" style="stop-color:#39B54A;stop-opacity:0.2"/>
</linearGradient>
<circle id="XMLID_2_" class="st9" cx="39.9" cy="51.5" r="6.8"/>
</svg>
